<?xml version="1.0" encoding="utf-8"?>
<svg version="1.1" id="Layer_1" xmlns="http://www.w3.org/2000/svg" x="0px" y="0px"
  viewBox="0 0 127 94.3" style="enable-background:new 0 0 127 94.3;" xml:space="preserve">
  <path fill="#3DBFD9" d="M100.6,48.5c-0.8,20-17.2,36-37.4,36c-18,0-33-12.7-36.7-29.6l27.8-5l-6.2,17.3l76-35.4c0,0-7.7,1.8-17.4,4.1
    C101.9,16.5,84.2,2,63.2,2c-24.7,0-44.8,20-45,44.6c2.5-1.1,5.1-2.1,7.7-3.2c1.8-19,17.9-33.9,37.3-33.9c17.5,0,32.2,12,36.3,28.2
    c-14.3,3.4-29.7,7.1-30.8,7.3c-2.3,0.6,7.7-19,7.7-19S4.2,59.1,3,59.1l16.1-2.9C23.4,76.6,41.5,92,63.2,92c24.8,0,45-20.2,45-45
    c0-0.6,0-1.2,0-1.8L100.6,48.5z"/>
</svg>
